<?xml version="1.0" standalone="no"?>
<!DOCTYPE svg PUBLIC "-//W3C//DTD SVG 20010904//EN"
 "http://www.w3.org/TR/2001/REC-SVG-20010904/DTD/svg10.dtd">
<svg version="1.0" xmlns="http://www.w3.org/2000/svg"
 width="1024.000000pt" height="1024.000000pt" viewBox="0 0 1024.000000 1024.000000"
 preserveAspectRatio="xMidYMid meet">

<g transform="translate(0.000000,1024.000000) scale(0.100000,-0.100000)"
fill="#000000" stroke="none">
<path d="M7600 8241 c0 -4 -27 -11 -60 -15 -33 -4 -65 -13 -73 -20 -7 -7 -30
-19 -51 -26 -23 -7 -57 -32 -85 -62 -25 -28 -55 -58 -65 -67 -10 -9 -26 -25
-35 -35 -9 -10 -24 -26 -34 -35 -11 -9 -49 -46 -85 -83 -37 -36 -74 -74 -83
-85 -9 -10 -25 -25 -35 -34 -10 -9 -26 -25 -35 -35 -9 -10 -25 -26 -35 -35
-10 -9 -26 -25 -36 -35 -29 -34 -66 -64 -77 -64 -12 0 12 -33 43 -59 10 -9 26
-25 35 -35 9 -10 25 -26 35 -35 10 -9 26 -25 35 -35 9 -10 24 -26 35 -35 10
-9 35 -33 55 -54 20 -22 45 -46 55 -55 10 -10 26 -26 35 -36 9 -10 25 -26 35
-35 10 -9 26 -25 35 -35 9 -10 25 -26 35 -35 10 -9 26 -24 35 -35 31 -36 94
-96 101 -96 4 0 12 -11 19 -24 7 -13 23 -29 36 -36 13 -7 28 -23 35 -36 18
-33 38 -37 58 -12 9 11 26 28 36 37 10 9 26 24 35 34 21 24 74 77 98 98 10 9
25 25 34 35 9 10 25 26 35 35 10 9 26 25 35 35 9 10 25 26 35 35 10 9 26 25
35 35 9 10 25 26 35 36 10 9 36 33 56 55 20 21 48 49 62 62 14 13 26 29 26 36
0 7 7 15 15 19 8 3 15 12 15 21 0 8 4 15 9 15 4 0 14 21 21 48 8 26 18 50 24
54 7 5 11 57 11 143 0 86 -4 138 -11 143 -6 4 -16 28 -24 55 -7 26 -17 47 -21
47 -5 0 -9 7 -9 15 0 9 -7 18 -15 21 -8 4 -15 12 -15 18 0 15 -27 44 -64 71
-16 11 -36 27 -45 36 -9 9 -27 20 -41 24 -13 4 -30 14 -37 21 -8 7 -40 16 -73
20 -33 4 -60 11 -60 15 0 5 -29 9 -65 9 -36 0 -65 -4 -65 -9z"/>
<path d="M6662 7449 c-9 -12 -25 -29 -36 -38 -10 -9 -51 -50 -92 -91 -40 -41
-78 -79 -84 -85 -5 -5 -20 -21 -32 -33 -13 -13 -32 -31 -42 -40 -10 -10 -26
-26 -35 -36 -9 -10 -24 -26 -35 -35 -10 -9 -51 -50 -92 -91 -40 -41 -78 -79
-84 -85 -5 -5 -20 -21 -32 -33 -13 -13 -32 -31 -42 -40 -10 -10 -26 -26 -35
-36 -9 -10 -24 -26 -35 -35 -10 -9 -51 -50 -92 -91 -40 -41 -78 -79 -84 -85
-5 -5 -20 -21 -32 -33 -13 -13 -31 -31 -42 -40 -10 -10 -51 -51 -92 -92 -40
-41 -78 -79 -84 -85 -5 -5 -20 -21 -32 -33 -13 -13 -32 -31 -42 -40 -10 -10
-26 -26 -35 -36 -9 -10 -24 -26 -35 -35 -10 -9 -51 -50 -92 -91 -40 -41 -78
-79 -84 -85 -5 -5 -20 -21 -32 -33 -13 -13 -32 -31 -42 -40 -10 -10 -26 -26
-35 -36 -9 -10 -24 -26 -35 -35 -10 -9 -51 -50 -92 -91 -40 -41 -78 -79 -84
-85 -5 -5 -20 -21 -32 -33 -13 -13 -31 -31 -41 -40 -70 -62 -237 -237 -237
-247 0 -9 28 -15 90 -20 50 -4 90 -11 90 -15 0 -4 27 -10 60 -14 33 -4 60 -11
60 -15 0 -5 28 -14 63 -21 34 -7 64 -16 67 -20 3 -3 24 -12 48 -18 23 -7 42
-17 42 -22 0 -5 16 -12 35 -16 19 -3 35 -10 35 -14 0 -5 14 -11 31 -15 17 -4
33 -13 36 -20 2 -8 18 -17 34 -20 16 -4 29 -10 29 -14 0 -4 16 -13 35 -21 19
-7 36 -19 39 -27 3 -7 12 -13 21 -13 8 0 15 -5 15 -11 0 -5 14 -15 30 -20 17
-6 30 -15 30 -20 0 -5 8 -13 17 -16 9 -4 25 -15 35 -25 10 -10 22 -18 28 -18
8 0 1810 1796 1810 1805 0 9 -691 695 -700 695 -6 0 -18 -10 -28 -21z"/>
<path d="M4235 4994 c-22 -24 -44 -44 -49 -44 -12 0 -446 -437 -446 -450 0 -5
11 -10 25 -10 14 0 25 5 25 10 0 6 57 10 150 10 93 0 150 -4 150 -10 0 -5 23
-10 51 -10 69 0 239 -22 239 -30 0 -4 25 -11 55 -15 30 -3 55 -10 55 -14 0 -4
29 -13 65 -20 36 -7 65 -16 65 -20 0 -5 25 -14 55 -21 30 -7 55 -17 55 -21 0
-4 14 -10 30 -14 17 -4 30 -11 30 -15 0 -5 18 -15 40 -21 22 -7 40 -16 40 -20
0 -4 14 -10 30 -14 17 -4 30 -10 30 -15 0 -4 14 -13 30 -19 17 -5 30 -15 30
-20 0 -6 6 -11 13 -11 8 0 24 -9 37 -20 13 -11 28 -20 34 -20 13 0 50 -26 74
-52 9 -10 22 -18 29 -18 6 0 16 -6 20 -13 4 -7 20 -18 36 -24 15 -7 27 -17 27
-23 0 -5 7 -10 15 -10 8 0 19 -9 25 -20 6 -11 21 -22 34 -26 13 -3 29 -17 37
-30 7 -14 23 -27 36 -30 13 -4 28 -15 34 -25 5 -11 15 -19 21 -19 6 0 23 -12
37 -27 15 -16 39 -34 54 -40 15 -7 27 -17 27 -23 0 -5 7 -10 15 -10 8 0 19 -9
25 -20 6 -11 16 -20 23 -20 14 0 50 -25 75 -52 9 -10 22 -18 30 -18 7 0 15 -7
18 -15 4 -8 12 -15 19 -15 6 0 22 -9 35 -20 13 -11 29 -20 37 -20 7 0 16 -6
19 -14 3 -8 16 -17 30 -20 13 -4 24 -10 24 -15 0 -5 16 -15 35 -21 19 -6 35
-16 35 -20 0 -5 18 -15 40 -21 22 -7 40 -16 40 -20 0 -4 14 -10 30 -14 17 -4
30 -11 30 -15 0 -5 18 -15 40 -21 22 -7 40 -15 40 -19 0 -5 11 -11 25 -14 14
-4 25 -10 25 -15 0 -5 23 -15 50 -22 28 -7 50 -16 50 -20 0 -5 16 -11 35 -15
19 -3 35 -10 35 -14 0 -5 25 -14 55 -21 30 -7 55 -16 55 -20 0 -4 20 -11 45
-15 25 -3 45 -10 45 -14 0 -4 35 -13 78 -20 42 -7 79 -16 82 -21 3 -4 67 -14
143 -21 75 -6 137 -16 137 -20 0 -4 101 -8 225 -8 124 0 225 4 225 9 0 4 39
11 86 15 48 3 90 9 95 12 5 3 9 149 9 325 0 297 -1 319 -17 319 -10 0 -89 -5
-176 -11 -121 -9 -201 -9 -335 1 -97 6 -179 15 -182 19 -3 4 -51 14 -107 21
-57 7 -103 17 -103 21 0 4 -20 11 -45 15 -25 3 -45 9 -45 13 0 4 -29 13 -65
20 -36 7 -65 17 -65 21 0 5 -18 11 -40 15 -22 4 -40 10 -40 15 0 4 -22 13 -50
20 -27 7 -50 16 -50 20 0 4 -12 11 -26 14 -15 4 -33 14 -41 21 -8 8 -25 15
-38 15 -13 0 -31 7 -39 15 -8 9 -29 21 -46 26 -16 6 -30 15 -30 19 0 5 -13 11
-30 15 -16 4 -30 10 -30 14 0 4 -16 13 -35 21 -19 8 -35 17 -35 22 0 4 -7 8
-15 8 -9 0 -18 6 -21 14 -3 8 -19 18 -36 21 -16 4 -32 13 -35 21 -3 8 -11 14
-19 14 -7 0 -17 6 -21 13 -4 6 -21 19 -38 27 -16 8 -34 21 -38 27 -4 7 -15 13
-22 13 -8 0 -15 4 -15 8 0 5 -12 15 -27 23 -15 8 -35 21 -44 29 -32 29 -63 50
-74 50 -5 0 -16 9 -23 20 -7 11 -17 20 -23 20 -5 0 -20 11 -33 25 -13 14 -28
25 -33 25 -5 0 -19 11 -31 25 -12 14 -29 25 -37 25 -8 0 -15 5 -15 10 0 6 -11
15 -25 20 -14 5 -25 14 -25 19 0 5 -13 14 -29 21 -16 6 -32 18 -35 26 -3 8
-12 14 -21 14 -8 0 -15 5 -15 10 0 6 -11 15 -25 20 -14 5 -25 14 -25 19 0 5
-13 12 -29 16 -16 3 -32 12 -34 20 -3 7 -19 16 -36 20 -17 4 -31 10 -31 15 0
5 -13 11 -30 15 -16 4 -30 11 -30 15 0 5 -18 15 -40 21 -22 7 -40 16 -40 21 0
4 -6 8 -14 8 -8 0 -21 6 -28 13 -7 7 -41 19 -75 27 -35 7 -63 16 -63 20 0 5
-33 14 -72 20 -40 7 -75 16 -78 21 -3 4 -43 11 -88 15 -45 4 -82 11 -82 15 0
5 -46 9 -102 8 l-103 -1 -40 -44z"/>
<path d="M3580 4141 c0 -4 -39 -11 -87 -15 -49 -3 -89 -11 -91 -16 -2 -6 -16
-10 -31 -10 -19 0 -42 -13 -70 -40 -23 -22 -45 -40 -49 -40 -4 0 -43 -39 -87
-85 -44 -47 -153 -160 -242 -251 -90 -92 -163 -173 -163 -180 0 -8 10 -14 25
-14 14 0 25 4 25 8 0 5 37 14 83 22 45 7 85 17 88 21 3 5 34 12 70 15 35 4 67
12 71 18 10 16 696 15 706 0 4 -7 37 -15 75 -19 37 -4 67 -11 67 -15 0 -4 34
-13 75 -21 41 -7 75 -16 75 -20 0 -3 27 -12 60 -19 33 -7 60 -16 60 -21 0 -4
16 -11 35 -15 19 -3 35 -10 35 -14 0 -4 20 -13 45 -20 25 -7 45 -16 45 -21 0
-5 11 -11 25 -15 14 -3 25 -10 25 -14 0 -4 20 -13 44 -20 25 -7 47 -18 50 -26
3 -8 12 -14 21 -14 8 0 15 -4 15 -9 0 -5 10 -11 23 -15 13 -3 34 -14 48 -26
38 -31 42 -34 74 -50 31 -16 41 -23 91 -68 16 -15 42 -33 57 -41 15 -8 27 -18
27 -23 0 -4 7 -8 15 -8 8 0 19 -9 25 -20 6 -11 16 -20 23 -20 7 0 24 -13 37
-30 14 -16 30 -29 36 -30 7 0 22 -11 35 -25 13 -13 27 -25 31 -25 4 0 24 -16
44 -35 19 -19 39 -35 43 -35 5 0 26 -16 47 -35 69 -61 74 -65 82 -65 4 0 18
-12 31 -25 13 -14 29 -25 36 -25 7 0 15 -7 19 -15 3 -8 10 -15 16 -15 5 0 19
-9 30 -20 11 -11 27 -20 35 -20 8 0 15 -5 15 -10 0 -6 11 -15 25 -20 14 -5 25
-14 25 -20 0 -5 7 -10 15 -10 7 0 18 -6 22 -13 4 -6 22 -19 38 -27 32 -16 36
-19 74 -50 13 -11 29 -20 36 -20 7 0 22 -9 35 -20 13 -11 29 -20 37 -20 7 0
13 -4 13 -9 0 -5 14 -14 30 -21 17 -7 30 -16 30 -20 0 -5 14 -11 30 -15 17 -4
30 -10 30 -14 0 -4 18 -13 40 -20 22 -6 40 -16 40 -20 0 -5 20 -14 45 -21 25
-7 45 -16 45 -21 0 -4 16 -11 35 -15 19 -3 35 -10 35 -15 0 -5 20 -14 45 -21
25 -7 45 -16 45 -20 0 -4 11 -8 24 -8 14 0 31 -6 38 -13 7 -8 44 -20 81 -27
37 -7 67 -16 67 -20 0 -5 19 -11 43 -15 23 -4 44 -11 47 -16 3 -4 46 -13 95
-20 50 -7 92 -15 95 -19 7 -10 208 -30 293 -30 38 0 67 -4 67 -10 0 -6 42 -10
105 -10 63 0 105 4 105 10 0 6 31 10 73 10 92 0 251 19 255 31 2 5 17 9 33 9
l29 0 0 326 0 326 -87 -7 c-49 -4 -91 -13 -95 -19 -11 -17 -570 -15 -575 2 -3
6 -18 12 -35 12 -54 0 -208 23 -208 31 0 5 -22 11 -50 15 -27 4 -50 10 -50 14
0 4 -31 12 -70 19 -38 7 -70 16 -70 21 0 4 -16 11 -35 14 -19 4 -35 10 -35 15
0 4 -25 14 -55 21 -30 7 -55 16 -55 20 0 4 -18 13 -40 20 -22 7 -40 17 -40 21
0 5 -16 11 -35 15 -19 3 -35 10 -35 14 0 5 -14 11 -31 15 -17 4 -33 13 -36 20
-2 8 -18 17 -34 20 -16 4 -29 10 -29 15 0 5 -16 14 -35 20 -19 6 -35 16 -35
21 0 5 -11 11 -25 15 -14 3 -25 10 -25 14 0 4 -15 13 -32 21 -18 7 -37 19 -41
26 -4 7 -15 13 -22 13 -8 0 -15 5 -15 10 0 6 -6 10 -13 10 -7 0 -22 8 -33 18
-10 9 -32 24 -49 32 -16 8 -34 21 -38 27 -4 7 -15 13 -22 13 -8 0 -15 5 -15
10 0 6 -11 15 -25 20 -14 5 -25 14 -25 19 0 5 -10 13 -22 17 -13 4 -29 15 -36
25 -7 11 -18 19 -24 19 -6 0 -21 11 -34 25 -13 14 -27 25 -31 25 -8 0 -53 35
-84 65 -9 8 -20 15 -25 15 -5 0 -20 12 -33 25 -13 14 -28 25 -35 25 -6 1 -22
14 -36 30 -13 17 -29 30 -35 30 -6 0 -18 8 -26 18 -9 9 -28 26 -43 36 -25 18
-49 37 -83 66 -7 5 -17 10 -22 10 -6 0 -16 9 -23 20 -7 11 -18 20 -25 20 -7 0
-16 6 -20 13 -4 7 -23 19 -40 26 -18 8 -33 16 -33 20 0 4 -16 13 -35 20 -19 7
-35 17 -35 22 0 5 -6 9 -13 9 -8 0 -24 9 -36 19 -13 11 -36 23 -52 26 -16 4
-29 10 -29 15 0 4 -11 11 -25 14 -14 4 -25 11 -25 16 0 6 -8 10 -17 10 -23 0
-83 22 -83 31 0 4 -16 10 -35 13 -19 4 -35 11 -35 16 0 4 -31 14 -70 20 -38 6
-70 15 -70 19 0 7 -115 31 -150 31 -11 0 -20 4 -20 9 0 5 -40 13 -90 17 -49 3
-90 10 -90 15 0 5 -83 9 -185 9 -102 0 -185 -4 -185 -9z"/>
<path d="M3210 3220 c0 -6 -29 -10 -66 -10 -86 0 -294 -22 -294 -31 0 -3 -36
-12 -80 -19 -44 -7 -80 -16 -80 -20 0 -4 -22 -10 -50 -14 -27 -4 -50 -11 -50
-16 0 -5 -14 -10 -32 -12 -25 -2 -33 -9 -41 -33 -6 -16 -13 -32 -17 -35 -4 -3
-10 -18 -14 -34 -4 -15 -14 -35 -21 -43 -8 -8 -15 -25 -15 -38 0 -13 -7 -30
-15 -39 -8 -8 -18 -29 -21 -45 -4 -17 -10 -31 -14 -31 -4 0 -13 -20 -20 -45
-7 -25 -16 -45 -20 -45 -4 0 -11 -16 -14 -35 -4 -19 -11 -35 -16 -35 -6 0 -15
-20 -22 -45 -7 -25 -15 -45 -19 -45 -4 0 -13 -22 -20 -50 -7 -27 -16 -50 -20
-50 -4 0 -10 -12 -13 -26 -4 -15 -14 -33 -21 -41 -8 -8 -15 -25 -15 -38 0 -13
-7 -30 -15 -38 -7 -8 -17 -26 -21 -41 -3 -14 -9 -26 -13 -26 -4 0 -13 -22 -20
-50 -7 -27 -16 -50 -21 -50 -9 0 -18 -41 -12 -58 4 -14 42 -17 42 -3 0 5 14
12 30 16 17 4 30 10 30 15 0 4 23 13 50 20 28 7 50 16 50 21 0 5 11 11 25 15
14 3 25 10 25 14 0 5 23 14 50 21 28 7 50 16 50 20 0 4 14 10 30 14 17 4 30
10 30 15 0 5 17 14 38 21 20 6 39 15 42 18 9 11 60 31 80 31 11 0 20 4 20 10
0 5 11 12 25 16 14 3 25 10 25 14 0 4 20 13 45 20 25 7 45 16 45 21 0 5 11 11
25 15 14 3 25 10 25 14 0 4 23 13 50 20 28 7 50 16 50 20 0 4 11 11 25 14 14
4 25 10 25 15 0 5 20 14 45 21 25 7 45 16 45 21 0 4 14 10 30 14 23 5 108 84
325 301 162 162 295 299 295 304 0 6 -9 10 -19 10 -11 0 -21 4 -23 9 -4 11
-185 31 -283 31 -43 0 -75 4 -75 10 0 6 -33 10 -80 10 -47 0 -80 -4 -80 -10z"/>
</g>
</svg>
