<?xml version="1.0" standalone="no"?>
<!DOCTYPE svg PUBLIC "-//W3C//DTD SVG 20010904//EN"
 "http://www.w3.org/TR/2001/REC-SVG-20010904/DTD/svg10.dtd">
<svg version="1.0" xmlns="http://www.w3.org/2000/svg"
 width="1024.000000pt" height="1024.000000pt" viewBox="0 0 1024.000000 1024.000000"
 preserveAspectRatio="xMidYMid meet">

<g transform="translate(0.000000,1024.000000) scale(0.100000,-0.100000)"
fill="#000000" stroke="none">
<path d="M5530 8004 c-59 -12 -115 -26 -126 -32 -10 -5 -47 -19 -82 -31 -35
-11 -112 -47 -172 -80 -98 -54 -132 -72 -167 -90 -6 -3 -56 -37 -110 -76 -54
-38 -106 -74 -115 -80 -17 -11 -186 -131 -277 -198 -30 -22 -84 -60 -120 -85
-36 -24 -87 -62 -113 -83 -26 -22 -49 -39 -52 -39 -6 0 -24 -12 -172 -112 -86
-57 -143 -91 -214 -124 -57 -27 -101 -49 -157 -78 -60 -31 -244 -64 -362 -64
-113 0 -137 4 -406 68 -188 45 -294 60 -390 56 -100 -5 -235 -25 -270 -41 -16
-7 -57 -24 -90 -36 -107 -41 -185 -96 -185 -130 0 -15 96 -10 126 6 16 8 36
15 44 15 9 0 21 5 27 11 10 10 144 47 193 54 108 13 163 15 192 6 18 -6 83
-22 144 -36 61 -14 125 -32 142 -41 35 -17 32 -16 162 -44 155 -34 391 -29
517 10 209 66 351 131 541 249 214 132 331 211 352 236 7 8 17 15 22 15 6 0
23 10 38 23 16 12 61 45 100 72 39 28 109 78 155 112 47 34 93 64 104 68 10 3
26 14 36 25 10 11 24 20 31 20 7 0 17 6 21 13 19 30 172 126 318 199 184 92
207 100 329 117 74 11 111 6 226 -31 111 -36 183 -89 235 -174 11 -18 61 -66
111 -106 50 -40 111 -94 137 -120 26 -27 48 -48 50 -48 2 0 37 -33 78 -72 142
-139 250 -238 260 -238 5 0 9 -4 9 -9 0 -12 162 -141 254 -204 119 -80 176
-117 181 -117 2 0 24 -13 48 -30 25 -16 47 -30 50 -30 3 0 47 -20 99 -44 90
-42 129 -57 156 -62 7 -1 24 -9 37 -18 13 -9 33 -16 44 -16 11 0 22 -4 25 -9
3 -5 23 -11 43 -14 21 -2 64 -14 95 -26 31 -11 103 -28 159 -36 56 -9 105 -18
109 -20 5 -3 113 -7 241 -10 128 -3 236 -8 242 -12 5 -3 26 3 48 12 32 15 39
23 39 47 0 29 -36 88 -54 88 -5 0 -20 9 -32 21 -26 24 -69 35 -214 54 -202 27
-295 43 -342 59 -25 9 -68 20 -95 25 -52 10 -82 22 -128 49 -16 10 -46 24 -65
32 -19 8 -55 27 -79 42 -25 15 -51 28 -58 28 -6 0 -23 10 -36 23 -39 36 -144
107 -158 107 -16 1 -69 45 -69 57 0 4 -14 17 -30 28 -16 11 -30 23 -30 28 0 4
-7 7 -15 7 -9 0 -27 12 -40 26 -23 25 -96 86 -227 191 -32 26 -58 49 -58 52 0
4 -38 38 -86 76 -47 39 -111 93 -142 121 -31 29 -84 72 -117 97 -33 25 -71 57
-84 71 -14 14 -30 26 -36 26 -6 0 -38 22 -72 49 -33 27 -70 52 -81 55 -11 4
-26 13 -32 21 -7 8 -23 15 -36 15 -13 0 -38 8 -56 18 -62 34 -152 53 -283 60
-112 6 -145 4 -235 -14z"/>
<path d="M5420 7430 c-77 -8 -136 -24 -208 -56 -29 -13 -55 -24 -58 -24 -4 0
-23 -13 -44 -30 -20 -16 -48 -34 -61 -40 -13 -5 -46 -26 -74 -46 -90 -65 -190
-138 -195 -144 -14 -15 -109 -90 -114 -90 -6 0 -21 -12 -114 -92 -30 -27 -59
-48 -63 -48 -5 0 -26 -17 -48 -37 -45 -44 -113 -102 -156 -135 -16 -12 -41
-33 -55 -46 -14 -12 -50 -39 -80 -60 -30 -20 -64 -45 -75 -55 -11 -10 -35 -27
-52 -38 -18 -12 -33 -25 -33 -30 0 -5 -5 -9 -12 -9 -6 0 -26 -11 -44 -25 -18
-14 -36 -25 -41 -25 -4 0 -35 -16 -68 -36 -95 -58 -296 -161 -345 -178 -51
-17 -156 -44 -197 -51 -146 -25 -212 -25 -398 -1 -16 2 -56 7 -87 11 -32 3
-60 10 -63 15 -3 5 -27 12 -53 16 -26 4 -59 13 -74 20 -15 8 -38 14 -51 14
-13 0 -50 9 -83 21 -32 11 -77 24 -99 28 -22 5 -85 18 -140 29 -216 44 -432
38 -549 -17 -68 -31 -88 -59 -65 -87 10 -13 25 -14 68 -9 31 4 64 11 73 16 29
16 139 19 265 8 135 -11 268 -31 268 -40 0 -1 11 -3 25 -5 48 -6 116 -23 195
-49 155 -52 420 -101 537 -100 90 1 218 15 238 25 8 5 37 11 64 15 27 4 72 16
100 27 28 11 60 22 71 26 17 5 160 76 220 110 228 127 417 256 588 401 103 88
257 212 297 240 19 14 69 53 110 87 81 68 118 94 285 207 134 90 188 121 240
137 22 7 45 16 50 20 20 15 187 20 249 8 33 -6 66 -15 71 -19 6 -4 41 -24 78
-43 82 -44 95 -56 133 -121 16 -27 39 -61 51 -75 13 -14 23 -28 23 -32 0 -4
13 -20 29 -37 30 -31 130 -147 171 -200 32 -40 87 -98 125 -132 17 -14 40 -37
52 -50 13 -13 31 -31 41 -39 10 -8 56 -49 103 -91 46 -42 89 -78 94 -80 6 -2
48 -31 93 -64 46 -33 89 -63 95 -66 7 -3 32 -16 57 -29 60 -31 187 -93 230
-113 40 -19 164 -60 265 -89 39 -10 86 -24 105 -29 39 -12 183 -34 308 -48 46
-6 151 -11 235 -12 250 -3 410 -31 576 -101 114 -48 176 -59 199 -36 23 23 14
87 -18 131 -39 55 -97 90 -195 120 -111 35 -110 34 -305 52 -96 9 -195 18
-220 21 -25 2 -75 6 -111 8 -36 3 -84 9 -105 15 -22 6 -58 13 -80 15 -71 9
-220 48 -261 69 -18 9 -39 17 -47 17 -9 0 -40 11 -70 25 -30 14 -60 25 -65 25
-6 0 -19 4 -29 9 -9 5 -53 26 -97 47 -44 21 -102 52 -130 68 -27 17 -68 40
-90 51 -22 11 -45 25 -51 30 -6 6 -31 27 -54 46 -24 18 -62 50 -85 69 -63 52
-78 63 -105 82 -14 9 -52 41 -85 72 -33 31 -63 56 -66 56 -3 0 -49 42 -101 93
-209 204 -300 288 -339 312 -22 14 -42 32 -45 40 -3 8 -15 17 -26 21 -11 3
-39 19 -63 35 -121 82 -269 115 -435 99z"/>
<path d="M5260 6688 c-66 -16 -156 -51 -210 -82 -14 -8 -54 -31 -90 -51 -64
-37 -183 -125 -289 -214 -30 -26 -73 -59 -97 -76 -41 -29 -193 -154 -265 -218
-20 -17 -53 -43 -73 -57 -42 -28 -105 -77 -154 -117 -46 -39 -145 -107 -257
-178 -82 -52 -343 -176 -400 -190 -9 -2 -31 -10 -65 -23 -8 -3 -22 -6 -30 -8
-8 -1 -42 -6 -75 -12 -118 -21 -285 -29 -370 -19 -16 3 -57 8 -90 12 -66 8
-168 31 -193 45 -10 4 -87 31 -172 59 -86 27 -172 57 -193 66 -20 8 -37 12
-37 9 0 -4 -6 -2 -12 3 -16 13 -135 40 -213 49 -63 7 -206 7 -240 0 -11 -2
-56 -9 -100 -16 -136 -21 -175 -46 -163 -107 5 -26 76 -29 136 -6 67 26 340
25 427 -1 33 -10 74 -20 90 -23 17 -3 39 -12 50 -19 11 -8 26 -14 35 -14 8 0
38 -11 65 -25 28 -13 56 -25 63 -25 8 0 26 -7 40 -15 15 -8 63 -24 107 -36 44
-11 103 -27 132 -34 28 -8 64 -14 80 -14 15 0 60 -5 98 -11 123 -20 179 -25
225 -22 25 1 56 2 69 2 35 0 200 29 219 39 10 5 62 23 117 41 55 18 151 57
213 86 62 30 115 54 119 54 3 0 26 15 52 33 25 18 57 38 71 45 45 22 192 123
250 172 14 11 43 35 65 51 76 58 109 84 168 134 134 113 461 368 543 423 121
81 292 170 344 178 14 3 39 9 56 15 57 18 192 2 261 -32 75 -36 164 -115 209
-186 19 -28 51 -72 74 -98 22 -25 44 -54 49 -63 11 -20 123 -143 201 -222 63
-62 123 -110 140 -110 6 0 25 -14 43 -30 49 -47 121 -90 247 -149 212 -99 261
-117 445 -165 136 -36 398 -76 585 -91 91 -7 138 -13 210 -25 30 -5 84 -12
120 -16 36 -3 69 -10 74 -15 6 -5 19 -9 30 -9 34 0 206 -59 279 -96 38 -19 75
-34 83 -34 15 0 134 -79 175 -116 14 -13 29 -24 35 -24 5 0 29 -20 53 -45 73
-74 129 -60 151 39 18 83 -14 147 -122 242 -51 45 -154 111 -165 107 -7 -3
-16 3 -19 12 -7 18 -55 45 -81 45 -10 0 -36 9 -57 21 -22 12 -53 23 -70 25
-17 2 -62 10 -101 19 -69 15 -208 31 -355 41 -41 3 -118 10 -170 15 -52 5
-129 12 -170 14 -41 3 -94 12 -117 20 -24 8 -57 15 -74 15 -16 0 -67 12 -112
26 -45 14 -111 35 -147 46 -36 11 -87 31 -114 44 -28 13 -54 24 -58 24 -13 0
-182 80 -188 89 -7 10 -70 41 -85 41 -6 0 -24 14 -40 30 -16 17 -34 30 -40 30
-11 0 -95 60 -131 95 -12 11 -39 34 -60 51 -101 83 -133 111 -203 182 -42 42
-88 92 -103 110 -33 41 -173 147 -248 188 -30 17 -75 36 -100 44 -25 7 -57 17
-71 22 -39 14 -230 5 -309 -14z"/>
<path d="M5340 5899 c-158 -19 -148 -17 -255 -64 -133 -58 -247 -124 -386
-222 -41 -29 -89 -63 -107 -75 -64 -45 -75 -54 -123 -93 -98 -81 -116 -94
-199 -151 -47 -32 -126 -88 -177 -126 -50 -37 -94 -68 -98 -68 -3 0 -39 -22
-80 -50 -41 -27 -77 -50 -81 -50 -4 0 -22 -11 -40 -25 -18 -14 -39 -25 -46
-25 -7 0 -24 -9 -38 -20 -14 -11 -29 -20 -34 -20 -5 0 -41 -15 -80 -34 -94
-45 -137 -59 -292 -95 -121 -28 -161 -35 -284 -45 -52 -5 -323 20 -360 33 -14
5 -59 19 -100 31 -139 42 -284 91 -295 99 -9 8 -228 70 -305 86 -59 13 -81 15
-181 16 -161 3 -317 -59 -295 -116 10 -26 35 -28 114 -10 82 20 132 22 227 11
148 -16 184 -25 317 -78 26 -10 54 -18 62 -18 8 0 30 -6 48 -14 73 -31 123
-51 128 -51 3 -1 25 -8 50 -18 25 -9 57 -19 72 -21 15 -3 32 -7 37 -10 5 -4
22 -8 38 -10 15 -2 71 -14 123 -25 161 -35 479 -21 620 29 30 10 90 29 133 41
42 12 77 25 77 29 0 4 11 11 25 14 26 7 126 49 159 67 10 6 34 19 52 30 19 10
34 16 34 14 0 -3 22 10 49 29 27 19 72 47 99 61 28 15 56 33 63 41 6 8 17 14
24 14 8 0 15 4 17 9 2 4 21 20 43 34 59 39 246 173 277 199 14 13 41 33 60 46
18 13 76 55 128 94 52 39 127 94 165 121 39 28 72 54 73 59 2 4 9 8 15 8 6 0
18 6 26 14 9 8 32 23 52 34 20 11 45 25 55 31 131 74 320 131 414 126 146 -8
215 -45 375 -200 176 -171 287 -253 505 -375 8 -4 44 -20 80 -35 36 -15 79
-33 95 -41 43 -19 243 -85 252 -82 5 0 21 -4 36 -10 16 -7 35 -12 43 -12 9 0
25 -5 36 -11 12 -6 66 -17 122 -24 90 -12 281 -39 345 -50 13 -2 45 -7 70 -10
126 -17 322 -62 361 -82 14 -7 33 -13 42 -13 10 0 37 -9 60 -19 24 -10 68 -29
98 -42 73 -32 185 -96 245 -141 28 -20 64 -47 80 -59 75 -55 175 -170 293
-333 18 -25 39 -46 47 -46 8 0 33 18 54 40 34 35 40 49 46 100 7 59 0 136 -15
155 -4 6 -11 21 -15 35 -7 22 -25 47 -90 123 -8 9 -15 20 -15 25 0 4 -29 31
-65 61 -35 30 -67 61 -69 68 -3 7 -11 13 -17 13 -7 0 -28 12 -48 28 -20 15
-45 32 -56 38 -11 6 -29 15 -40 22 -74 41 -285 119 -375 139 -36 7 -105 20
-155 27 -49 8 -151 24 -225 35 -182 29 -190 30 -226 35 -17 2 -56 7 -85 10
-97 13 -299 60 -404 94 -16 6 -64 20 -105 32 -41 12 -82 28 -90 35 -19 15 -92
50 -148 69 -24 9 -61 29 -82 46 -21 16 -41 30 -45 30 -10 0 -83 46 -147 93
-28 20 -57 37 -64 37 -7 0 -25 13 -41 29 -16 15 -42 35 -58 44 -17 8 -41 27
-54 41 -14 14 -29 26 -34 26 -5 0 -27 15 -50 34 -78 64 -245 133 -322 134 -11
0 -38 2 -60 4 -22 2 -69 1 -105 -3z"/>
<path d="M5240 5064 c-83 -13 -170 -37 -213 -60 -16 -7 -34 -14 -41 -14 -18 0
-236 -114 -276 -144 -8 -6 -31 -20 -50 -30 -19 -10 -66 -39 -103 -65 -89 -60
-119 -79 -136 -88 -24 -11 -137 -88 -180 -122 -21 -17 -41 -31 -44 -31 -3 0
-46 -30 -94 -66 -48 -36 -113 -79 -143 -95 -57 -30 -67 -36 -138 -81 -23 -15
-54 -31 -67 -34 -13 -3 -29 -12 -36 -20 -22 -26 -285 -134 -328 -134 -11 0
-22 -4 -26 -9 -3 -5 -31 -13 -63 -16 -31 -4 -74 -11 -94 -16 -80 -20 -296 -11
-488 22 -53 9 -280 78 -425 130 -50 17 -125 36 -221 54 -86 16 -98 16 -225 0
-74 -9 -140 -21 -147 -27 -6 -6 -12 -7 -12 -2 0 5 -7 -4 -15 -20 -19 -36 -19
-50 0 -66 12 -10 35 -9 118 5 101 17 155 15 297 -10 49 -9 163 -46 174 -56 6
-5 19 -9 30 -9 12 -1 39 -9 61 -20 22 -11 50 -19 61 -20 12 0 39 -7 60 -17 22
-9 57 -20 79 -24 22 -4 65 -15 95 -24 30 -9 64 -18 75 -20 11 -3 31 -7 45 -10
116 -24 379 -26 422 -4 9 5 28 9 41 9 13 0 53 9 88 21 35 11 102 32 149 45 80
23 116 38 250 103 73 35 295 168 395 236 44 30 94 64 110 75 17 11 50 35 74
53 24 18 72 50 106 72 35 22 98 64 140 93 42 28 78 52 80 52 2 0 33 20 69 45
37 25 70 45 75 45 5 0 16 7 24 14 28 28 352 164 363 153 3 -3 28 1 56 9 54 17
213 13 262 -6 15 -5 56 -16 91 -25 36 -8 83 -24 105 -35 22 -11 40 -18 40 -16
0 7 72 -26 265 -119 245 -118 354 -163 500 -205 17 -4 44 -13 60 -19 17 -6 57
-18 90 -26 64 -17 160 -44 185 -52 8 -3 24 -7 35 -9 53 -9 122 -26 140 -34 11
-4 56 -20 100 -34 180 -57 260 -88 304 -114 25 -15 60 -34 76 -42 51 -24 158
-90 202 -123 182 -138 232 -183 302 -272 49 -62 111 -164 111 -183 0 -17 52
-126 65 -134 60 -43 156 65 171 193 6 57 -16 145 -53 208 -10 16 -35 58 -55
93 -40 69 -191 224 -275 282 -29 20 -55 36 -58 36 -3 0 -27 15 -54 33 -26 18
-63 39 -82 46 -19 7 -43 17 -54 22 -38 16 -130 48 -205 69 -41 12 -79 26 -85
30 -5 4 -23 10 -40 12 -16 3 -73 17 -125 31 -52 14 -137 32 -188 41 -51 9 -98
19 -105 23 -6 4 -29 10 -52 14 -35 6 -122 28 -325 83 -30 9 -64 19 -75 24 -11
5 -42 16 -70 25 -82 25 -278 96 -310 111 -16 8 -55 24 -85 35 -30 11 -96 35
-145 54 -242 93 -465 129 -635 101z"/>
<path d="M5395 4253 c-122 -9 -254 -28 -277 -39 -15 -8 -40 -14 -55 -14 -15 0
-41 -7 -57 -15 -15 -8 -31 -13 -35 -11 -4 3 -26 -6 -50 -20 -24 -13 -48 -24
-54 -24 -16 0 -214 -97 -272 -134 -27 -17 -57 -36 -66 -41 -46 -28 -136 -92
-151 -107 -10 -10 -23 -18 -29 -18 -7 0 -37 -17 -68 -37 -31 -21 -63 -42 -72
-48 -9 -5 -48 -31 -87 -57 -40 -27 -75 -48 -78 -48 -3 0 -20 -11 -37 -24 -18
-13 -43 -27 -57 -31 -14 -4 -32 -13 -40 -20 -43 -37 -360 -171 -450 -190 -8
-2 -15 -4 -15 -5 0 -1 -9 -3 -20 -4 -11 -2 -34 -6 -51 -10 -82 -19 -322 -6
-429 24 -16 4 -57 13 -90 20 -33 7 -69 16 -80 20 -11 5 -56 18 -100 29 -44 11
-106 29 -139 41 -49 18 -81 21 -202 21 -182 0 -242 -15 -257 -66 -14 -45 1
-50 176 -50 119 0 168 -4 179 -13 9 -7 20 -12 24 -11 5 1 16 0 24 -3 8 -3 52
-14 98 -24 46 -9 85 -21 88 -26 3 -4 18 -8 33 -8 15 0 31 -4 37 -8 15 -14 99
-35 291 -72 66 -13 330 -7 361 8 9 5 44 14 77 21 33 7 71 19 85 26 14 7 57 25
95 39 39 15 97 40 130 57 33 16 65 29 71 29 6 0 17 7 24 15 7 9 38 28 69 42
31 14 80 41 109 60 29 18 55 33 58 33 2 0 14 8 25 19 11 10 57 42 102 70 88
56 138 89 177 119 14 10 48 31 75 46 28 16 58 35 67 43 20 18 127 77 181 100
20 9 37 20 37 25 0 4 6 8 13 8 6 0 46 14 87 31 41 17 86 33 99 35 13 3 35 11
50 18 71 35 293 64 451 60 157 -5 614 -86 644 -115 6 -5 22 -9 36 -9 14 0 30
-4 36 -8 5 -5 29 -14 54 -21 25 -6 54 -16 65 -20 37 -16 184 -61 197 -61 7 0
49 -18 92 -40 44 -22 88 -40 98 -40 10 0 18 -4 18 -9 0 -8 18 -18 50 -26 17
-5 84 -38 138 -69 35 -20 72 -36 83 -36 10 0 19 -4 19 -9 0 -5 15 -18 33 -29
134 -83 310 -234 391 -334 75 -94 134 -204 170 -318 36 -112 69 -126 149 -65
65 50 89 94 95 175 4 62 1 78 -32 164 -21 53 -42 98 -47 101 -5 4 -9 13 -9 22
0 9 -13 28 -28 43 -16 15 -38 43 -51 63 -12 20 -35 47 -52 61 -16 14 -29 29
-29 35 0 6 -4 11 -8 11 -5 0 -26 16 -48 35 -60 54 -73 65 -121 99 -72 50 -97
64 -112 65 -8 1 -22 7 -30 14 -9 8 -41 24 -71 36 -30 13 -62 29 -70 36 -8 7
-26 16 -40 20 -14 4 -43 16 -65 26 -46 21 -189 69 -224 75 -13 3 -35 11 -50
18 -14 7 -42 16 -61 19 -46 8 -60 11 -160 37 -47 13 -96 24 -110 26 -60 8
-141 25 -167 35 -15 5 -70 19 -123 29 -52 10 -102 22 -111 25 -10 4 -39 8 -65
10 -27 2 -80 9 -119 15 -38 6 -86 12 -105 15 -20 2 -52 6 -72 10 -36 7 -207
12 -263 8z"/>
<path d="M5368 3519 c-48 -4 -102 -12 -120 -18 -18 -5 -67 -17 -108 -24 -41
-8 -97 -23 -125 -32 -93 -32 -260 -107 -292 -131 -17 -13 -36 -24 -41 -24 -4
0 -26 -13 -48 -30 -21 -16 -45 -30 -51 -30 -7 0 -32 -15 -56 -32 -24 -18 -68
-50 -98 -71 -30 -21 -94 -67 -144 -103 -49 -35 -94 -64 -99 -64 -5 0 -23 -10
-40 -23 -17 -13 -52 -33 -78 -45 -25 -12 -49 -26 -52 -31 -9 -13 -232 -97
-248 -93 -4 1 -20 -3 -35 -9 -81 -31 -226 -38 -420 -18 -56 5 -120 16 -143 24
-33 12 -215 38 -270 38 -84 2 -122 -5 -140 -23 -52 -52 -4 -86 135 -94 50 -2
108 -9 130 -14 110 -27 187 -42 250 -48 170 -17 395 -8 459 20 17 7 52 18 78
24 118 29 368 167 567 315 35 26 67 47 71 47 10 0 194 122 198 132 2 4 7 8 12
8 5 0 44 22 87 48 43 27 105 59 138 71 77 29 106 41 128 52 24 13 229 56 302
64 119 13 241 8 410 -16 39 -6 82 -12 96 -14 14 -2 63 -13 109 -24 45 -12 89
-21 97 -21 8 0 29 -6 46 -14 18 -7 48 -19 67 -26 19 -7 49 -18 65 -25 17 -7
68 -29 115 -48 87 -36 238 -123 275 -157 12 -11 26 -20 31 -20 12 0 254 -247
254 -260 0 -6 15 -31 33 -57 19 -27 48 -79 66 -118 18 -38 37 -78 42 -87 5
-10 9 -26 9 -37 0 -34 59 -42 116 -15 51 24 103 83 118 134 14 48 8 140 -13
176 -5 10 -20 40 -31 66 -11 26 -29 52 -39 57 -10 6 -21 21 -25 33 -12 47
-238 258 -276 258 -6 0 -29 15 -53 33 -24 18 -59 39 -78 46 -74 29 -185 73
-204 81 -11 5 -38 14 -60 20 -22 7 -53 16 -70 21 -82 27 -171 46 -262 55 -18
2 -40 7 -50 13 -10 5 -40 12 -68 16 -27 4 -66 11 -85 15 -32 8 -89 15 -215 26
-103 9 -283 11 -367 3z"/>
<path d="M5430 2799 c-217 -23 -422 -79 -512 -141 -14 -10 -28 -18 -31 -18 -3
0 -34 -19 -69 -42 -35 -24 -79 -52 -98 -62 -19 -10 -64 -38 -100 -62 -171
-112 -342 -197 -425 -211 -16 -3 -38 -10 -49 -15 -26 -14 -117 -28 -206 -32
-89 -4 -108 -11 -121 -44 -12 -30 1 -47 44 -61 63 -19 229 -12 243 10 3 5 22
9 43 9 20 0 46 7 57 15 10 8 28 15 38 15 23 0 196 85 276 135 30 19 62 37 70
41 15 7 102 62 225 143 85 57 207 121 229 121 9 0 16 5 16 12 0 6 3 9 6 5 3
-3 25 2 47 12 23 10 74 24 112 30 39 7 77 16 85 20 22 11 242 5 334 -9 126
-19 288 -90 421 -185 78 -55 227 -213 266 -282 42 -73 54 -83 102 -83 74 0
158 41 193 95 22 34 3 112 -42 171 -19 24 -34 48 -34 52 0 30 -280 232 -323
232 -7 0 -27 9 -45 20 -18 11 -60 26 -95 34 -34 8 -98 24 -142 36 -44 11 -98
23 -120 25 -172 15 -292 24 -305 23 -8 -1 -49 -5 -90 -9z"/>
</g>
</svg>
