<?xml version="1.0" standalone="no"?>
<!DOCTYPE svg PUBLIC "-//W3C//DTD SVG 20010904//EN"
 "http://www.w3.org/TR/2001/REC-SVG-20010904/DTD/svg10.dtd">
<svg version="1.0" xmlns="http://www.w3.org/2000/svg"
 width="1024.000000pt" height="1024.000000pt" viewBox="0 0 1024.000000 1024.000000"
 preserveAspectRatio="xMidYMid meet">

<g transform="translate(0.000000,1024.000000) scale(0.100000,-0.100000)"
fill="#000000" stroke="none">
<path d="M5540 7388 c-35 -5 -67 -12 -70 -17 -3 -4 -31 -13 -62 -20 -32 -7
-58 -16 -58 -21 0 -4 -16 -11 -35 -14 -19 -4 -40 -13 -48 -20 -7 -7 -29 -19
-50 -27 -20 -7 -37 -16 -37 -19 0 -4 -16 -12 -35 -20 -19 -8 -35 -17 -35 -21
0 -3 -13 -12 -30 -19 -16 -7 -30 -15 -30 -19 0 -4 -17 -15 -37 -26 -21 -11
-42 -25 -46 -32 -4 -7 -14 -13 -22 -13 -8 0 -18 -6 -22 -14 -4 -7 -19 -19 -32
-26 -26 -13 -40 -24 -72 -52 -10 -10 -22 -18 -26 -18 -5 0 -24 -14 -43 -30
-19 -16 -40 -30 -46 -30 -7 0 -14 -7 -18 -15 -3 -8 -17 -20 -31 -25 -14 -5
-25 -14 -25 -20 0 -5 -6 -10 -12 -10 -7 0 -26 -11 -43 -25 -16 -13 -41 -32
-54 -42 -13 -10 -31 -25 -40 -33 -9 -8 -30 -22 -46 -30 -17 -8 -36 -23 -43
-32 -7 -10 -19 -18 -27 -18 -8 0 -18 -6 -22 -13 -4 -6 -21 -19 -38 -27 -16 -8
-36 -23 -43 -32 -7 -10 -20 -18 -28 -18 -8 0 -14 -5 -14 -10 0 -6 -11 -15 -25
-20 -14 -5 -25 -14 -25 -19 0 -5 -14 -12 -31 -16 -17 -4 -33 -13 -36 -21 -3
-8 -11 -14 -19 -14 -8 0 -22 -8 -32 -18 -11 -11 -42 -27 -70 -37 -29 -11 -52
-22 -52 -25 0 -4 -18 -13 -40 -20 -22 -7 -40 -16 -40 -20 0 -5 -20 -14 -45
-21 -25 -7 -45 -16 -45 -20 0 -4 -20 -12 -45 -18 -25 -6 -45 -15 -45 -20 0 -4
-27 -14 -60 -21 -33 -7 -60 -16 -60 -20 0 -4 -35 -13 -77 -20 -43 -7 -80 -16
-83 -20 -10 -16 -277 -40 -447 -40 l-173 0 0 -60 0 -60 60 0 c33 0 60 -4 60
-10 0 -6 62 -10 165 -10 103 0 165 4 165 10 0 6 21 10 48 10 67 0 252 22 252
31 0 3 36 12 80 19 44 7 80 16 80 20 0 4 27 13 60 19 33 7 60 16 60 22 0 5 6
9 14 9 19 0 120 32 126 41 3 3 22 12 43 18 20 7 37 16 37 20 0 4 18 14 40 21
22 7 40 16 40 20 0 4 18 13 40 20 22 7 40 16 40 19 0 3 15 13 33 21 17 7 41
22 51 32 11 10 26 18 33 18 7 0 13 3 13 8 0 4 18 15 40 25 22 9 40 21 40 25 0
4 16 14 35 21 19 7 35 16 35 20 0 5 14 14 30 21 17 7 30 16 30 21 0 5 11 14
25 19 14 5 25 13 25 18 0 4 16 14 35 22 19 8 35 17 35 20 0 3 16 12 35 20 19
8 35 17 35 21 0 5 16 16 35 25 19 9 35 19 35 23 0 4 16 13 35 21 19 8 35 18
35 22 0 5 11 13 25 18 14 5 25 14 25 19 0 5 13 12 30 16 16 4 33 12 37 19 5 7
24 18 43 26 19 8 38 19 42 25 4 6 25 17 48 25 22 7 40 16 40 20 0 4 18 13 40
20 22 7 40 17 40 21 0 5 18 14 40 20 22 7 40 15 40 19 0 3 23 13 50 20 28 7
50 17 50 21 0 4 24 13 53 19 28 7 54 16 57 21 3 4 42 13 88 20 45 8 82 17 82
21 0 4 63 8 140 8 77 0 140 -4 140 -8 0 -5 32 -14 70 -21 39 -7 70 -16 70 -21
0 -4 16 -11 35 -14 19 -4 40 -12 47 -19 7 -7 28 -19 46 -26 17 -7 32 -17 32
-22 0 -4 17 -13 38 -20 21 -6 44 -20 51 -32 11 -17 11 -19 -4 -13 -9 3 -28 9
-41 12 -13 3 -24 10 -24 14 0 5 -34 14 -75 21 -41 7 -75 17 -75 21 0 4 -63 8
-140 8 -77 0 -140 -3 -140 -8 0 -4 -34 -13 -75 -19 -42 -7 -82 -19 -90 -27 -8
-7 -30 -17 -50 -20 -19 -4 -35 -10 -35 -14 0 -5 -24 -17 -52 -27 -29 -10 -62
-27 -72 -37 -11 -10 -26 -18 -33 -18 -7 0 -13 -4 -13 -8 0 -5 -16 -14 -35 -22
-19 -8 -35 -17 -35 -21 0 -3 -13 -12 -30 -19 -16 -7 -30 -16 -30 -19 0 -4 -16
-13 -35 -21 -19 -8 -35 -17 -35 -22 0 -4 -18 -15 -40 -24 -22 -9 -40 -20 -40
-24 0 -4 -13 -13 -30 -20 -16 -7 -30 -16 -30 -21 0 -4 -8 -10 -19 -14 -10 -3
-31 -17 -47 -30 -16 -14 -35 -25 -41 -25 -7 0 -13 -4 -13 -10 0 -5 -6 -10 -14
-10 -8 0 -21 -8 -28 -18 -7 -10 -28 -25 -45 -33 -18 -7 -33 -17 -33 -21 0 -4
-17 -15 -37 -24 -21 -10 -42 -24 -46 -31 -4 -7 -14 -13 -22 -13 -8 0 -18 -6
-22 -13 -4 -6 -21 -19 -38 -27 -16 -8 -34 -21 -38 -27 -4 -7 -14 -13 -22 -13
-8 0 -19 -9 -25 -20 -6 -11 -17 -20 -26 -20 -8 0 -17 -6 -20 -13 -3 -8 -20
-20 -39 -27 -19 -8 -35 -17 -35 -20 0 -4 -18 -15 -40 -25 -22 -10 -40 -21 -40
-25 0 -4 -13 -13 -30 -20 -16 -7 -30 -16 -30 -21 0 -4 -16 -13 -35 -20 -19 -7
-35 -17 -35 -22 0 -4 -13 -13 -30 -18 -16 -6 -30 -14 -30 -18 0 -4 -16 -13
-35 -21 -19 -8 -35 -17 -35 -20 0 -3 -22 -14 -50 -24 -27 -10 -50 -21 -50 -25
0 -4 -18 -13 -40 -20 -22 -6 -40 -15 -40 -20 0 -4 -22 -13 -50 -20 -27 -7 -50
-16 -50 -20 0 -4 -22 -13 -50 -20 -27 -7 -50 -16 -50 -21 0 -4 -29 -13 -65
-20 -36 -7 -65 -16 -65 -20 0 -4 -38 -13 -85 -20 -47 -7 -85 -16 -85 -20 0
-15 -214 -33 -447 -37 l-243 -5 0 -39 c0 -22 5 -39 10 -39 6 0 10 -13 10 -29
0 -29 0 -29 77 -36 106 -10 583 -1 591 12 4 5 53 16 110 23 56 7 102 16 102
20 0 4 32 13 70 20 39 7 70 16 70 20 0 4 25 12 55 19 30 7 55 16 55 20 0 4 29
15 65 26 36 10 65 22 65 26 0 5 20 14 45 20 25 6 45 15 45 19 0 4 18 13 40 20
22 7 40 17 40 22 0 4 7 8 15 8 8 0 23 8 34 19 10 10 35 24 55 31 20 6 36 15
36 18 0 4 15 14 33 21 17 8 37 20 42 27 6 6 27 17 48 24 20 6 37 16 37 21 0 5
11 14 25 19 14 5 25 13 25 18 0 4 16 14 35 22 19 8 35 17 35 20 0 3 16 12 35
20 19 8 35 18 35 22 0 5 14 14 30 19 17 6 30 15 30 20 0 4 17 16 38 25 20 10
40 23 44 30 4 6 20 15 35 19 15 3 33 15 41 26 7 10 20 19 28 19 8 0 14 5 14
10 0 6 6 10 13 10 7 0 22 8 33 18 10 9 33 24 49 32 17 8 33 20 38 27 4 6 20
14 36 18 16 3 31 12 34 19 3 7 23 18 46 26 23 7 41 17 41 22 0 5 14 14 30 19
17 6 30 14 30 18 0 4 16 13 35 21 19 8 35 16 35 20 0 3 17 12 37 19 21 8 43
20 50 27 8 7 29 16 48 20 19 3 35 10 35 14 0 4 19 13 43 20 23 8 44 17 47 20
7 9 134 40 164 40 13 0 26 6 29 13 5 16 404 18 415 1 4 -6 46 -19 95 -29 48
-10 87 -21 87 -25 0 -4 20 -13 45 -19 25 -6 45 -15 45 -20 0 -5 14 -12 30 -16
17 -4 36 -12 43 -19 7 -7 25 -17 42 -23 31 -10 46 -33 22 -33 -9 0 -17 4 -19
9 -1 5 -32 15 -68 22 -36 7 -68 18 -72 24 -11 16 -450 14 -456 -2 -2 -7 -14
-13 -27 -13 -31 0 -129 -22 -135 -31 -3 -3 -29 -12 -57 -19 -29 -6 -53 -15
-53 -19 0 -4 -20 -13 -45 -20 -25 -7 -45 -17 -45 -21 0 -5 -22 -16 -50 -25
-27 -9 -50 -20 -50 -24 0 -4 -16 -13 -35 -21 -19 -8 -35 -17 -35 -22 0 -4 -7
-8 -15 -8 -8 0 -23 -8 -33 -18 -11 -11 -33 -25 -50 -33 -18 -8 -32 -17 -32
-22 0 -4 -11 -12 -25 -17 -14 -5 -25 -13 -25 -18 0 -4 -16 -14 -35 -22 -19 -8
-35 -17 -35 -21 0 -5 -17 -16 -37 -25 -21 -10 -42 -24 -46 -31 -4 -7 -15 -13
-23 -13 -8 0 -17 -7 -20 -15 -4 -8 -12 -15 -20 -15 -7 0 -19 -8 -26 -18 -7
-10 -28 -25 -45 -33 -18 -7 -33 -17 -33 -22 0 -4 -11 -12 -25 -17 -14 -5 -25
-14 -25 -19 0 -6 -17 -18 -37 -27 -21 -10 -42 -24 -46 -31 -4 -7 -15 -13 -23
-13 -8 0 -17 -6 -20 -13 -3 -8 -20 -20 -39 -27 -19 -8 -35 -18 -35 -22 0 -5
-11 -13 -25 -18 -14 -5 -25 -13 -25 -18 0 -4 -16 -14 -35 -22 -19 -7 -36 -19
-39 -27 -3 -7 -12 -13 -20 -13 -8 0 -19 -6 -23 -13 -4 -7 -25 -21 -45 -31 -21
-9 -38 -21 -38 -25 0 -5 -13 -14 -30 -20 -16 -5 -30 -14 -30 -19 0 -5 -18 -14
-40 -21 -22 -6 -40 -16 -40 -21 0 -5 -16 -14 -35 -21 -19 -7 -35 -16 -35 -19
0 -4 -18 -13 -40 -20 -22 -7 -40 -17 -40 -21 0 -5 -18 -14 -40 -20 -22 -7 -40
-16 -40 -20 0 -5 -25 -16 -55 -24 -30 -9 -55 -20 -55 -25 0 -4 -22 -13 -50
-20 -27 -7 -50 -15 -50 -19 0 -4 -26 -14 -57 -21 -32 -7 -61 -16 -64 -21 -3
-5 -32 -14 -65 -20 -32 -6 -61 -15 -64 -19 -3 -5 -47 -15 -98 -21 -51 -7 -92
-16 -92 -19 0 -14 -348 -32 -528 -29 l-182 4 0 -77 0 -76 108 -7 c145 -11 606
1 610 14 2 6 18 11 35 11 48 0 201 22 207 30 3 4 34 12 70 19 36 7 67 16 70
20 3 4 40 15 83 25 42 10 77 21 77 26 0 5 18 11 40 15 22 4 47 13 54 20 8 8
34 19 60 26 25 6 46 15 46 19 0 5 16 14 35 20 19 6 35 15 35 20 0 4 23 13 50
20 28 7 50 16 50 22 0 5 14 14 30 19 17 6 30 14 30 18 0 4 25 16 55 26 30 11
55 22 55 26 0 4 14 12 30 19 17 7 30 16 30 20 0 5 14 11 31 15 17 4 33 13 36
21 3 8 11 14 19 14 8 0 23 9 34 20 11 11 31 22 45 26 14 3 29 12 33 18 4 7 22
18 40 25 17 8 32 17 32 21 0 4 20 15 45 26 25 10 45 22 45 27 0 4 14 13 30 18
17 6 30 15 30 19 0 5 16 14 35 21 19 7 35 17 35 21 0 5 11 13 25 18 14 5 25
13 25 18 0 4 16 14 35 21 19 7 35 16 35 21 0 5 9 12 20 15 11 3 26 12 32 19 7
6 30 20 51 29 20 10 37 21 37 26 0 4 16 13 35 21 19 8 35 17 35 21 0 3 14 12
30 19 17 7 30 16 30 20 0 5 14 11 31 15 17 4 33 13 35 20 3 6 23 18 45 25 21
7 39 16 39 20 0 4 26 15 58 25 31 10 59 21 62 24 3 4 25 13 50 21 25 8 47 18
50 22 3 4 39 13 80 20 41 7 77 15 80 19 3 4 60 12 127 17 125 10 362 -1 373
-17 3 -4 33 -14 68 -21 34 -7 62 -16 62 -20 0 -4 25 -12 55 -19 30 -7 55 -17
55 -22 0 -5 20 -14 45 -20 45 -11 63 -24 50 -37 -3 -3 -9 -1 -13 5 -9 14 -168
43 -234 43 -27 0 -48 5 -48 10 0 6 -42 10 -105 10 -63 0 -105 -4 -105 -10 0
-5 -15 -10 -34 -10 -48 0 -209 -29 -216 -39 -3 -5 -24 -14 -47 -20 -24 -7 -43
-16 -43 -20 0 -5 -16 -12 -35 -15 -19 -4 -40 -13 -47 -20 -7 -7 -28 -19 -45
-27 -18 -7 -33 -16 -33 -20 0 -3 -16 -11 -35 -19 -19 -8 -35 -17 -35 -21 0 -3
-13 -12 -30 -19 -16 -7 -42 -23 -57 -36 -16 -13 -34 -24 -40 -24 -7 0 -13 -5
-13 -10 0 -6 -11 -15 -25 -20 -14 -5 -25 -14 -25 -20 0 -5 -6 -10 -12 -10 -7
0 -26 -11 -42 -25 -16 -14 -32 -25 -36 -25 -4 0 -16 -8 -28 -17 -11 -10 -29
-26 -41 -35 -11 -9 -35 -25 -53 -34 -18 -9 -35 -20 -38 -24 -3 -4 -16 -13 -29
-20 -25 -13 -38 -22 -70 -50 -9 -8 -29 -21 -44 -29 -15 -8 -27 -18 -27 -21 0
-4 -13 -13 -30 -20 -16 -7 -30 -16 -30 -20 0 -4 -13 -13 -30 -20 -16 -7 -30
-16 -30 -20 0 -4 -18 -15 -40 -24 -22 -9 -40 -20 -40 -24 0 -5 -16 -14 -35
-22 -19 -8 -35 -17 -35 -21 0 -3 -13 -12 -30 -19 -16 -7 -30 -16 -30 -19 0 -4
-16 -13 -35 -21 -19 -8 -35 -18 -35 -22 0 -5 -13 -14 -30 -19 -16 -6 -30 -14
-30 -18 0 -4 -16 -13 -35 -21 -19 -8 -35 -17 -35 -20 0 -4 -18 -13 -40 -20
-23 -8 -44 -19 -48 -25 -4 -7 -24 -18 -44 -24 -21 -7 -38 -16 -38 -20 0 -4
-18 -14 -40 -21 -22 -7 -40 -16 -40 -20 0 -4 -18 -13 -40 -20 -22 -7 -40 -16
-40 -20 0 -4 -20 -13 -45 -19 -25 -6 -45 -15 -45 -19 0 -5 -27 -16 -60 -26
-33 -10 -60 -22 -60 -26 0 -4 -27 -13 -60 -20 -33 -7 -60 -16 -60 -20 0 -4
-28 -13 -62 -20 -35 -7 -65 -17 -68 -21 -3 -5 -39 -14 -80 -21 -41 -7 -77 -15
-80 -19 -6 -8 -148 -29 -195 -29 -18 0 -35 -6 -37 -12 -4 -10 -84 -13 -356
-13 l-352 0 0 -68 c0 -109 -27 -102 392 -102 246 0 361 3 366 11 4 6 63 16
132 23 68 6 127 15 130 19 3 4 41 14 85 21 44 7 82 17 85 21 3 4 42 15 88 25
45 10 82 21 82 25 0 4 25 13 55 20 30 7 55 16 55 20 0 3 23 13 50 20 28 7 50
17 50 20 0 4 18 12 40 19 22 6 40 16 40 20 0 5 16 12 35 15 19 4 40 13 47 20
8 7 30 19 51 25 20 7 37 16 37 20 0 4 25 15 55 26 30 10 55 22 55 27 0 5 14
14 30 19 17 6 30 15 30 19 0 5 13 11 30 15 16 4 33 12 37 19 5 7 24 18 43 26
19 8 38 19 43 26 4 7 21 15 37 19 17 4 30 11 30 16 0 6 16 17 35 25 19 8 35
18 35 23 0 5 13 12 30 16 16 4 33 12 37 18 5 7 22 19 38 27 17 8 39 23 49 33
11 9 26 17 33 17 7 0 13 4 13 8 0 5 16 14 35 22 19 8 35 18 35 22 0 5 14 14
30 19 17 6 30 14 30 18 0 5 18 16 39 26 22 10 42 23 45 30 2 7 18 16 35 20 17
4 31 11 31 16 0 6 14 15 30 20 17 6 30 15 30 19 0 5 16 14 35 21 19 7 35 17
35 21 0 4 6 8 13 8 7 0 22 8 33 19 11 10 37 24 57 30 20 7 37 16 37 20 0 4 25
15 55 26 30 10 55 21 55 25 0 4 18 13 40 20 22 7 40 16 40 20 0 3 23 13 50 20
28 7 50 17 50 21 0 4 29 12 65 19 36 7 65 16 65 20 0 13 186 30 325 30 144 0
326 -16 335 -30 3 -4 33 -14 68 -20 34 -7 62 -16 62 -20 0 -5 24 -14 53 -20
28 -7 54 -16 57 -20 3 -4 14 -12 25 -19 17 -11 16 -12 -15 -6 -19 4 -53 9 -75
12 -22 3 -43 11 -47 16 -10 17 -420 16 -425 0 -3 -7 -17 -13 -32 -13 -37 0
-145 -22 -151 -30 -3 -4 -35 -15 -72 -25 -38 -10 -68 -21 -68 -24 0 -4 -20
-13 -45 -20 -25 -7 -45 -17 -45 -22 0 -4 -18 -14 -40 -20 -22 -7 -40 -16 -40
-20 0 -4 -13 -12 -30 -18 -16 -5 -30 -14 -30 -19 0 -5 -18 -14 -39 -21 -21 -6
-42 -18 -45 -26 -3 -8 -12 -15 -20 -15 -8 0 -19 -6 -23 -13 -8 -14 -73 -47
-92 -47 -6 0 -11 -5 -11 -10 0 -6 -11 -15 -25 -20 -14 -5 -25 -14 -25 -20 0
-5 -6 -10 -14 -10 -8 0 -21 -8 -28 -17 -7 -10 -26 -25 -43 -33 -16 -8 -34 -21
-38 -27 -4 -7 -14 -13 -22 -13 -8 0 -18 -6 -22 -13 -4 -6 -21 -19 -38 -27 -16
-8 -36 -23 -43 -32 -7 -10 -20 -18 -28 -18 -8 0 -17 -6 -20 -13 -3 -8 -20 -20
-39 -27 -19 -8 -35 -18 -35 -22 0 -5 -11 -13 -25 -18 -14 -5 -25 -14 -25 -20
0 -5 -6 -10 -14 -10 -8 0 -21 -8 -28 -18 -7 -10 -28 -25 -45 -33 -18 -7 -33
-17 -33 -21 0 -4 -17 -15 -37 -24 -21 -10 -42 -24 -46 -31 -4 -7 -14 -13 -22
-13 -8 0 -18 -6 -22 -13 -4 -6 -21 -19 -38 -27 -16 -8 -37 -22 -46 -30 -37
-33 -63 -49 -90 -55 -16 -4 -29 -11 -29 -16 0 -6 -13 -15 -30 -20 -16 -6 -30
-15 -30 -19 0 -5 -13 -11 -29 -15 -15 -3 -37 -14 -48 -24 -10 -10 -36 -24 -56
-30 -20 -7 -37 -16 -37 -20 0 -4 -18 -13 -40 -20 -22 -6 -40 -16 -40 -20 0 -5
-20 -14 -45 -20 -25 -6 -45 -15 -45 -20 0 -5 -21 -14 -47 -22 -27 -7 -54 -18
-60 -25 -7 -7 -31 -15 -53 -19 -22 -4 -40 -10 -40 -15 0 -5 -36 -16 -80 -26
-44 -9 -80 -20 -80 -24 0 -4 -30 -13 -67 -20 -38 -7 -70 -16 -73 -20 -3 -4
-48 -14 -100 -21 -52 -7 -97 -16 -100 -19 -6 -8 -193 -30 -255 -30 -25 0 -45
-4 -45 -10 0 -6 -90 -10 -250 -10 -160 0 -250 4 -250 10 0 6 -25 10 -55 10
-55 0 -55 0 -49 -27 4 -16 10 -30 13 -33 4 -3 13 -24 20 -47 8 -23 20 -44 27
-47 8 -3 14 -12 14 -21 0 -13 26 -15 183 -17 260 -3 491 3 495 13 2 5 26 9 52
9 67 0 254 21 260 30 3 4 53 15 113 25 59 10 107 22 107 26 0 4 29 13 65 20
36 7 65 16 65 20 0 4 25 13 55 20 30 7 55 15 55 19 0 3 23 13 50 20 28 7 50
17 50 21 0 3 20 12 45 18 25 6 45 15 45 19 0 5 23 14 50 21 28 7 50 17 50 21
0 5 25 16 55 25 30 8 55 19 55 24 0 4 18 13 40 20 22 6 40 15 40 20 0 4 18 13
40 20 22 6 40 15 40 20 0 4 18 14 40 21 22 7 40 16 40 20 0 3 16 12 35 20 19
8 35 17 35 21 0 4 14 12 30 18 17 5 30 14 30 19 0 5 18 15 41 22 23 8 43 19
45 25 3 6 20 18 39 25 19 8 35 17 35 20 0 3 16 12 35 20 19 8 35 18 35 22 0 5
11 13 25 18 14 5 25 14 25 19 0 5 14 14 30 20 17 5 30 14 30 18 0 4 15 14 33
22 17 8 34 17 37 21 3 3 22 14 43 23 20 10 37 22 37 27 0 6 6 10 13 10 7 0 22
8 33 18 10 9 33 24 49 32 17 8 33 20 38 27 4 6 21 14 37 18 17 4 30 11 30 16
0 6 14 15 30 20 17 6 30 14 30 18 0 4 20 15 45 25 25 11 45 22 45 26 0 3 16
12 35 20 19 8 35 17 35 20 0 4 18 13 40 20 22 7 40 17 40 21 0 5 18 14 40 20
22 7 40 15 40 19 0 3 23 13 50 20 28 7 50 17 50 20 0 4 26 13 58 20 31 7 59
16 62 20 10 16 221 40 351 40 134 0 338 -23 348 -38 3 -5 27 -15 54 -23 26 -7
47 -17 47 -21 0 -4 9 -8 20 -8 11 0 20 -5 20 -11 0 -6 -7 -8 -16 -5 -58 22
-468 11 -484 -13 -3 -4 -36 -13 -74 -19 -38 -6 -72 -15 -75 -20 -3 -5 -32 -15
-63 -22 -32 -7 -58 -17 -58 -21 0 -4 -22 -13 -50 -20 -27 -7 -50 -16 -50 -20
0 -3 -20 -14 -45 -23 -25 -10 -45 -22 -45 -26 0 -5 -18 -15 -40 -21 -22 -7
-40 -16 -40 -20 0 -4 -13 -12 -30 -18 -16 -5 -30 -14 -30 -18 0 -5 -16 -15
-35 -22 -19 -7 -35 -16 -35 -21 0 -5 -9 -12 -20 -15 -11 -3 -26 -12 -32 -19
-7 -6 -30 -20 -50 -29 -21 -10 -38 -21 -38 -26 0 -4 -16 -13 -35 -21 -19 -8
-35 -18 -35 -22 0 -5 -11 -13 -25 -18 -14 -5 -25 -13 -25 -18 0 -4 -16 -14
-35 -22 -19 -8 -35 -18 -35 -22 0 -5 -11 -13 -25 -18 -14 -5 -25 -14 -25 -20
0 -5 -6 -10 -13 -10 -7 0 -22 -9 -34 -19 -11 -10 -35 -27 -54 -36 -19 -10 -36
-21 -39 -25 -3 -4 -16 -13 -29 -20 -25 -13 -39 -23 -69 -50 -10 -8 -30 -21
-45 -27 -15 -7 -27 -16 -27 -21 0 -5 -16 -14 -35 -22 -19 -8 -35 -18 -35 -22
0 -5 -11 -13 -25 -18 -14 -5 -25 -14 -25 -20 0 -5 -5 -10 -11 -10 -17 0 -82
-33 -103 -52 -11 -10 -26 -18 -33 -18 -7 0 -13 -4 -13 -8 0 -4 -16 -14 -35
-21 -19 -7 -35 -16 -35 -21 0 -5 -18 -15 -40 -21 -22 -7 -40 -16 -40 -20 0 -4
-16 -13 -35 -19 -19 -6 -35 -15 -35 -19 0 -4 -18 -13 -40 -20 -22 -6 -40 -15
-40 -19 0 -4 -25 -16 -55 -27 -30 -10 -55 -22 -55 -26 0 -5 -18 -14 -40 -20
-22 -7 -40 -16 -40 -20 0 -5 -20 -14 -45 -20 -25 -6 -45 -14 -45 -18 0 -4 -22
-13 -50 -20 -27 -7 -50 -17 -50 -21 0 -5 -25 -14 -55 -21 -30 -7 -55 -15 -55
-19 0 -4 -38 -16 -85 -26 -47 -10 -85 -22 -85 -25 0 -4 -38 -13 -85 -20 -47
-7 -85 -15 -85 -19 0 -7 -191 -30 -252 -30 -20 0 -38 -5 -40 -11 -5 -16 -621
-16 -626 0 -4 13 -32 15 -32 1 0 -5 6 -13 13 -17 6 -4 19 -21 27 -38 8 -16 21
-34 27 -38 7 -4 13 -14 13 -22 0 -8 9 -19 20 -25 11 -6 20 -17 20 -25 0 -30
39 -35 306 -35 270 0 544 16 544 32 0 4 13 8 28 8 41 0 216 31 222 39 3 4 38
13 78 21 39 7 72 16 72 20 0 4 26 13 57 20 31 7 63 18 70 25 7 7 31 16 53 20
22 4 40 10 40 15 0 4 20 13 45 20 25 7 45 16 45 20 0 5 23 14 50 21 28 7 50
16 50 20 0 4 23 15 50 24 28 9 50 20 50 24 0 4 18 14 40 21 22 7 40 16 40 20
0 4 18 13 40 20 22 7 40 16 40 20 0 4 18 13 39 20 22 7 42 19 45 26 3 8 12 14
20 14 8 0 21 6 28 13 15 15 81 47 97 47 6 0 11 5 11 10 0 6 11 15 25 20 25 9
36 17 74 50 9 8 30 22 46 30 17 8 33 20 38 27 4 6 21 14 37 18 17 4 30 11 30
16 0 5 11 14 25 19 14 5 25 13 25 17 0 5 18 17 40 27 22 11 40 23 40 27 0 4
14 12 30 18 17 5 30 14 30 19 0 4 16 14 35 22 19 8 35 16 35 19 0 4 15 13 33
21 17 7 41 22 51 32 11 10 26 18 33 18 7 0 13 4 13 8 0 5 16 14 35 22 19 8 35
17 35 20 0 4 20 15 45 26 25 10 45 21 45 26 0 4 18 13 40 19 22 7 40 16 40 20
0 5 18 14 40 20 22 7 40 16 40 20 0 5 18 14 40 20 22 7 40 16 40 20 0 5 19 13
42 19 22 7 47 18 55 26 8 7 36 16 63 20 28 4 50 10 50 13 0 8 73 28 140 37 25
4 48 12 52 18 10 15 436 15 446 0 4 -6 40 -19 81 -28 63 -15 101 -33 101 -48
0 -2 -84 -3 -186 -4 -116 0 -188 -4 -192 -11 -4 -5 -43 -15 -87 -22 -43 -6
-82 -15 -85 -20 -3 -5 -31 -14 -62 -21 -32 -6 -58 -15 -58 -19 0 -4 -22 -14
-50 -21 -27 -7 -50 -16 -50 -20 0 -3 -17 -12 -37 -19 -21 -8 -40 -17 -43 -20
-3 -3 -31 -15 -62 -25 -32 -11 -58 -23 -58 -28 0 -5 -13 -14 -30 -19 -16 -6
-30 -15 -30 -19 0 -5 -13 -11 -30 -15 -16 -4 -33 -12 -37 -19 -5 -7 -23 -18
-40 -25 -18 -8 -33 -17 -33 -21 0 -5 -13 -13 -30 -19 -16 -5 -30 -14 -30 -19
0 -4 -16 -14 -35 -22 -19 -8 -35 -17 -35 -20 0 -4 -18 -15 -40 -25 -22 -10
-40 -21 -40 -25 0 -4 -11 -12 -25 -18 -25 -12 -38 -21 -74 -52 -9 -8 -30 -22
-46 -30 -17 -8 -33 -20 -37 -26 -4 -7 -20 -15 -35 -19 -15 -3 -33 -15 -41 -26
-7 -10 -20 -19 -28 -19 -8 0 -14 -4 -14 -10 0 -5 -17 -17 -37 -27 -21 -9 -44
-23 -51 -29 -6 -7 -21 -16 -32 -19 -11 -3 -20 -10 -20 -14 0 -5 -13 -14 -30
-21 -16 -7 -30 -16 -30 -20 0 -4 -13 -13 -30 -20 -16 -7 -30 -16 -30 -19 0 -4
-16 -13 -35 -21 -19 -8 -35 -17 -35 -22 0 -4 -18 -15 -40 -24 -22 -9 -40 -20
-40 -24 0 -4 -13 -13 -30 -19 -16 -5 -30 -14 -30 -19 0 -5 -18 -14 -40 -21
-22 -6 -40 -15 -40 -20 0 -4 -16 -13 -35 -21 -19 -8 -35 -17 -35 -21 0 -5 -18
-14 -40 -20 -22 -7 -40 -16 -40 -20 0 -4 -16 -13 -35 -19 -19 -6 -35 -15 -35
-19 0 -5 -27 -16 -60 -25 -33 -9 -60 -21 -60 -26 0 -4 -22 -13 -50 -20 -27 -7
-50 -16 -50 -20 0 -5 -22 -14 -50 -21 -27 -7 -50 -16 -50 -20 0 -3 -27 -12
-60 -19 -33 -7 -60 -16 -60 -21 0 -4 -27 -13 -60 -20 -33 -6 -60 -15 -60 -19
0 -4 -35 -13 -77 -20 -43 -7 -80 -17 -83 -21 -6 -8 -238 -39 -298 -39 -23 0
-42 -4 -42 -10 0 -6 -86 -10 -237 -10 l-237 0 49 -46 c88 -80 93 -84 104 -84
5 0 15 -8 20 -19 6 -10 24 -24 41 -31 16 -7 30 -16 30 -21 0 -5 88 -9 195 -9
123 0 195 4 195 10 0 6 20 10 44 10 61 0 290 30 296 39 3 4 40 14 83 21 42 7
77 16 77 20 0 4 27 13 60 20 33 7 60 16 60 20 0 5 18 11 40 15 22 4 46 12 53
19 7 7 36 19 65 25 28 7 52 16 52 20 0 4 27 15 60 25 33 10 60 22 60 27 0 5
20 14 45 20 25 6 45 14 45 18 0 4 16 13 35 20 19 7 35 16 35 20 0 4 16 13 35
20 19 7 35 16 35 20 0 4 18 13 40 20 22 6 40 16 40 20 0 5 15 14 33 22 17 7
34 15 37 19 3 3 23 14 45 25 22 11 44 26 48 33 4 6 15 12 23 12 8 0 17 6 20
14 3 8 19 18 35 21 16 4 32 12 36 18 5 7 22 19 38 27 17 8 39 23 49 33 11 9
25 17 32 17 6 0 14 6 17 14 3 8 19 17 36 21 17 4 31 11 31 15 0 5 17 17 38 26
20 10 41 24 45 31 4 7 15 13 23 13 8 0 17 6 20 14 3 8 19 19 35 25 16 5 29 14
29 19 0 4 16 14 35 22 19 8 35 17 35 20 0 3 16 12 35 20 19 8 35 17 35 20 0 4
20 15 45 26 25 10 45 21 45 26 0 4 18 13 40 19 22 7 40 16 40 21 0 5 14 14 30
19 17 6 30 14 30 18 0 4 18 14 40 21 22 7 40 16 40 20 0 3 20 11 45 18 25 7
45 16 45 21 0 5 23 14 50 21 28 7 50 16 50 20 0 4 33 16 73 25 39 10 74 21 77
25 3 4 41 13 85 20 44 7 83 18 87 24 5 7 80 11 227 11 l219 0 7 78 c4 42 11
77 16 77 5 0 9 218 9 515 0 337 -3 515 -10 515 -6 0 -10 68 -10 185 0 117 4
185 10 185 6 0 10 46 10 119 0 132 1 131 -71 131 -21 0 -39 4 -39 9 0 5 -24
11 -52 15 -71 9 -128 25 -128 35 0 5 -16 12 -35 15 -19 4 -38 13 -42 19 -5 7
-23 19 -40 26 -18 8 -33 17 -33 21 0 5 -13 13 -30 19 -16 5 -30 14 -30 19 0 5
-11 14 -24 20 -27 12 -60 38 -85 65 -8 9 -20 17 -26 17 -6 0 -26 17 -46 38
-19 20 -46 43 -59 50 -14 7 -34 26 -45 42 -11 16 -31 35 -44 42 -14 7 -42 30
-62 51 -20 20 -40 37 -45 37 -4 0 -40 34 -81 75 -40 41 -76 75 -80 75 -5 0
-23 16 -42 35 -19 19 -38 35 -43 35 -5 0 -22 14 -38 30 -16 17 -33 30 -37 30
-4 0 -21 11 -37 25 -17 14 -40 28 -53 31 -13 4 -23 9 -23 13 0 5 -18 14 -40
21 -22 7 -40 17 -40 21 0 4 -22 13 -50 20 -27 7 -50 16 -50 20 0 10 -167 29
-246 28 -38 -1 -98 -6 -134 -11z"/>
<path d="M7345 4557 c-38 -5 -72 -13 -75 -17 -3 -4 -49 -15 -102 -24 -54 -10
-98 -21 -98 -25 0 -4 -22 -14 -50 -21 -27 -7 -50 -16 -50 -20 0 -3 -20 -11
-45 -18 -25 -7 -45 -16 -45 -21 0 -5 -22 -14 -50 -21 -27 -7 -50 -16 -50 -22
0 -5 -13 -14 -30 -19 -16 -6 -30 -14 -30 -18 0 -4 -17 -13 -37 -20 -21 -8 -40
-17 -43 -20 -3 -4 -24 -15 -47 -25 -24 -11 -43 -22 -43 -26 0 -3 -16 -12 -35
-20 -19 -8 -35 -17 -35 -22 0 -4 -6 -8 -12 -8 -7 0 -26 -11 -42 -25 -17 -14
-40 -28 -52 -31 -12 -3 -25 -12 -28 -20 -3 -8 -12 -14 -20 -14 -8 0 -19 -6
-23 -13 -4 -7 -25 -21 -45 -31 -21 -9 -38 -20 -38 -25 0 -4 -16 -13 -35 -21
-19 -8 -35 -18 -35 -22 0 -5 -11 -13 -25 -18 -14 -5 -25 -13 -25 -18 0 -4 -16
-14 -35 -22 -19 -8 -35 -18 -35 -22 0 -5 -11 -13 -25 -18 -14 -5 -25 -14 -25
-19 0 -5 -13 -14 -30 -21 -16 -7 -30 -16 -30 -20 0 -4 -18 -15 -40 -25 -22
-10 -40 -21 -40 -25 0 -4 -13 -13 -30 -20 -16 -7 -30 -16 -30 -20 0 -4 -13
-13 -30 -20 -16 -7 -30 -16 -30 -19 0 -4 -16 -13 -35 -21 -19 -8 -35 -18 -35
-22 0 -5 -13 -14 -30 -19 -16 -6 -30 -14 -30 -18 0 -4 -16 -13 -35 -21 -19 -8
-35 -16 -35 -19 0 -3 -19 -15 -43 -26 -23 -11 -44 -22 -47 -25 -3 -4 -21 -12
-40 -20 -19 -8 -37 -16 -40 -19 -10 -12 -50 -31 -64 -31 -8 0 -16 -7 -19 -14
-3 -8 -22 -18 -41 -22 -20 -3 -36 -10 -36 -14 0 -5 -17 -14 -37 -21 -21 -6
-40 -15 -43 -18 -3 -4 -32 -16 -65 -26 -33 -11 -66 -25 -72 -32 -7 -6 -31 -14
-53 -18 -22 -4 -40 -10 -40 -15 0 -4 -27 -13 -60 -20 -33 -7 -60 -16 -60 -20
0 -4 -29 -13 -65 -20 -36 -7 -65 -16 -65 -20 0 -4 -43 -13 -95 -21 -52 -7 -95
-16 -95 -19 0 -10 -161 -30 -233 -30 -31 0 -57 -4 -57 -9 0 -6 -24 -11 -52
-13 l-53 -4 33 -13 c17 -7 32 -16 32 -20 0 -4 18 -13 40 -20 22 -6 40 -16 40
-20 0 -5 16 -12 35 -15 19 -4 40 -13 48 -20 7 -8 39 -19 70 -26 31 -7 57 -16
57 -21 0 -4 29 -13 65 -20 36 -7 65 -16 65 -19 0 -4 42 -13 93 -20 50 -7 94
-17 97 -21 9 -14 216 -29 388 -29 181 0 405 17 410 31 2 5 15 9 29 9 36 0 157
22 163 30 3 4 33 13 68 20 34 7 62 16 62 20 0 4 27 13 60 20 33 7 60 17 60 21
0 5 20 14 45 20 25 6 45 15 45 20 0 5 20 14 45 20 25 6 45 14 45 18 0 4 23 15
50 25 28 10 50 22 50 26 0 4 15 13 33 21 17 7 34 16 37 19 3 3 20 12 38 19 17
8 32 17 32 21 0 4 14 13 30 20 17 7 30 15 30 19 0 3 15 13 33 20 17 8 38 23
45 33 7 10 20 18 28 18 8 0 14 4 14 10 0 5 15 16 34 25 19 9 37 23 40 31 3 8
12 14 20 14 7 0 21 11 30 25 9 14 21 25 26 25 11 0 270 255 270 266 0 4 16 23
35 43 58 61 84 92 90 111 3 10 12 21 20 24 8 3 15 12 15 20 0 8 8 21 18 28 10
7 25 28 33 46 7 17 17 32 21 32 5 0 8 6 8 13 0 7 8 22 19 33 10 11 24 37 30
57 7 20 16 37 20 37 4 0 13 18 20 40 6 22 16 40 20 40 5 0 14 27 22 60 7 33
16 60 20 60 3 0 14 45 24 100 11 55 22 100 27 100 4 0 8 5 8 10 0 6 -3 9 -7 9
-5 -1 -39 -6 -78 -12z"/>
</g>
</svg>
